<svg width="480pt" height="290pt" viewBox="0 0 480 290" version="1.1" xmlns="http://www.w3.org/2000/svg" xmlns:xlink="http://www.w3.org/1999/xlink">
  <g id="surface2">
    <path style=" stroke:none;fill-rule:evenodd;fill:rgb(61.568627%,76.862745%,20.784314%);fill-opacity:1;" d="M 196.800781 136.898438 C 196.066406 135.765625 195.816406 134.550781 196.050781 133.25 L 206.648438 80.449219 L 212.398438 76.398438 C 213.066406 77.832031 213.449219 79.867188 213.550781 82.5 C 213.550781 82.566406 213.550781 83.367188 213.550781 84.898438 C 213.550781 86.398438 213.566406 88.300781 213.601562 90.601562 C 213.601562 92.898438 213.601562 95.25 213.601562 97.648438 C 213.601562 100.050781 213.617188 102.132812 213.648438 103.898438 C 213.648438 105.699219 213.648438 106.832031 213.648438 107.300781 C 211.882812 107.800781 210.5 108.816406 209.5 110.351562 C 208.464844 111.917969 207.949219 113.734375 207.949219 115.800781 L 207.949219 129.5 C 207.984375 132.199219 208.75 134.667969 210.25 136.898438 L 216.851562 146.648438 C 213.015625 147.515625 209.398438 148.566406 206 149.800781 L 196.800781 136.898438 M 218.550781 115.75 L 219 121.25 C 219.234375 123.917969 220.132812 126.351562 221.699219 128.550781 L 232.949219 144.5 C 228.515625 144.832031 224.265625 145.382812 220.199219 146.148438 L 212.300781 134.550781 C 211.535156 133.417969 211.148438 132.183594 211.148438 130.851562 L 211.101562 116 C 211.132812 114.234375 211.535156 112.867188 212.300781 111.898438 C 213.066406 110.933594 213.949219 110.433594 214.949219 110.398438 C 215.984375 110.398438 216.816406 110.867188 217.449219 111.800781 C 218.117188 112.765625 218.484375 114.082031 218.550781 115.75 M 260.351562 139.449219 C 260.75 139.683594 261.167969 139.75 261.601562 139.648438 C 262.035156 139.550781 262.382812 139.316406 262.648438 138.949219 L 272.898438 123.800781 C 274.398438 121.566406 275.167969 119.101562 275.199219 116.398438 L 275.25 102.699219 C 275.25 100.632812 274.734375 98.816406 273.699219 97.25 C 272.667969 95.683594 271.265625 94.667969 269.5 94.199219 C 269.5 93.734375 269.515625 92.632812 269.550781 90.898438 C 269.550781 89.167969 269.550781 87.148438 269.550781 84.851562 C 269.582031 82.515625 269.601562 80.199219 269.601562 77.898438 L 280.101562 85.351562 L 287.148438 120.148438 C 287.382812 121.449219 287.117188 122.648438 286.351562 123.75 L 268.101562 149.398438 C 264.035156 148.398438 259.75 147.617188 255.25 147.050781 C 250.75 146.515625 246.066406 146.25 241.199219 146.25 C 240.601562 146.25 239.984375 146.25 239.351562 146.25 L 261.449219 115.199219 C 262.984375 113 263.867188 110.550781 264.101562 107.851562 L 264.550781 102.398438 C 264.648438 100.734375 265.015625 99.417969 265.648438 98.449219 C 266.285156 97.515625 267.117188 97.050781 268.148438 97.050781 C 269.148438 97.082031 270.035156 97.582031 270.800781 98.550781 C 271.566406 99.484375 271.964844 100.851562 272 102.648438 L 271.949219 117.5 C 271.949219 118.832031 271.582031 120.066406 270.851562 121.199219 L 259.898438 137.25 C 259.667969 137.617188 259.582031 138.015625 259.648438 138.449219 C 259.75 138.851562 259.984375 139.183594 260.351562 139.449219 "/>
    <path style=" stroke:none;fill-rule:evenodd;fill:rgb(7.45098%,26.27451%,38.823529%);fill-opacity:1;" d="M 204.050781 149.851562 C 207.449219 148.582031 211.066406 147.515625 214.898438 146.648438 L 208.300781 136.949219 C 206.800781 134.683594 206.035156 132.214844 206 129.550781 L 206 115.800781 C 206 113.734375 206.5 111.917969 207.5 110.351562 C 208.535156 108.816406 209.933594 107.800781 211.699219 107.300781 C 211.699219 106.832031 211.699219 105.699219 211.699219 103.898438 C 211.667969 102.132812 211.648438 100.050781 211.648438 97.648438 C 211.648438 95.285156 211.648438 92.949219 211.648438 90.648438 C 211.617188 88.351562 211.601562 86.433594 211.601562 84.898438 C 211.601562 83.367188 211.601562 82.566406 211.601562 82.5 C 211.5 79.867188 211.117188 77.832031 210.449219 76.398438 L 204.699219 80.449219 L 194.101562 133.25 C 193.832031 134.582031 194.082031 135.800781 194.851562 136.898438 L 204.050781 149.851562 M 213.050781 110.148438 C 212.050781 110.183594 211.167969 110.683594 210.398438 111.648438 C 209.632812 112.617188 209.25 114 209.25 115.800781 L 209.25 130.601562 C 209.25 131.964844 209.632812 133.199219 210.398438 134.300781 L 218.300781 145.949219 C 222.367188 145.148438 226.617188 144.582031 231.050781 144.25 L 219.800781 128.351562 C 218.234375 126.117188 217.332031 123.667969 217.101562 121 L 216.699219 115.5 C 216.601562 113.832031 216.214844 112.535156 215.550781 111.601562 C 214.917969 110.632812 214.082031 110.148438 213.050781 110.148438 M 213.101562 74.550781 C 214.132812 76.417969 214.714844 79.035156 214.851562 82.398438 C 214.851562 82.464844 214.832031 83.25 214.800781 84.75 C 214.800781 86.285156 214.785156 88.199219 214.75 90.5 C 214.75 92.800781 214.75 95.148438 214.75 97.550781 C 214.714844 99.917969 214.714844 102 214.75 103.800781 C 214.75 105.566406 214.765625 106.699219 214.800781 107.199219 C 216 107.5 216.964844 108.101562 217.699219 109 C 218.433594 109.867188 218.964844 110.867188 219.300781 112 C 219.667969 113.101562 219.867188 114.199219 219.898438 115.300781 L 220.449219 121.851562 C 220.550781 123.214844 220.984375 124.449219 221.75 125.550781 L 234.449219 143.398438 L 258.199219 110.101562 C 259 108.964844 259.449219 107.734375 259.550781 106.398438 L 260.101562 99.851562 C 260.132812 98.75 260.316406 97.632812 260.648438 96.5 C 261.015625 95.398438 261.550781 94.398438 262.25 93.5 C 262.984375 92.632812 263.949219 92.050781 265.148438 91.75 C 265.183594 91.351562 265.214844 90.515625 265.25 89.25 C 265.25 87.949219 265.25 86.398438 265.25 84.601562 C 265.25 82.800781 265.25 80.917969 265.25 78.949219 C 265.214844 76.984375 265.199219 75.117188 265.199219 73.351562 L 240 55.601562 L 213.101562 74.550781 M 258.648438 134.898438 L 269.601562 118.851562 C 270.367188 117.714844 270.75 116.484375 270.75 115.148438 L 270.75 100.300781 C 270.714844 98.535156 270.316406 97.167969 269.550781 96.199219 C 268.785156 95.234375 267.917969 94.734375 266.949219 94.699219 C 265.917969 94.699219 265.082031 95.167969 264.449219 96.101562 C 263.785156 97.066406 263.398438 98.382812 263.300781 100.050781 L 262.851562 105.550781 C 262.648438 108.214844 261.765625 110.648438 260.199219 112.851562 L 238.101562 143.949219 C 238.734375 143.917969 239.367188 143.898438 240 143.898438 C 244.832031 143.898438 249.5 144.183594 254 144.75 C 258.535156 145.285156 262.832031 146.050781 266.898438 147.050781 L 285.148438 121.449219 C 285.882812 120.351562 286.132812 119.132812 285.898438 117.800781 L 278.898438 83 L 268.351562 75.601562 C 268.351562 77.867188 268.351562 80.167969 268.351562 82.5 C 268.316406 84.832031 268.300781 86.851562 268.300781 88.550781 C 268.300781 90.285156 268.300781 91.382812 268.300781 91.851562 C 270.066406 92.351562 271.449219 93.367188 272.449219 94.898438 C 273.484375 96.464844 274 98.285156 274 100.351562 L 273.949219 114.101562 C 273.949219 115.398438 273.765625 116.683594 273.398438 117.949219 C 273 119.214844 272.433594 120.382812 271.699219 121.449219 L 261.398438 136.601562 C 261.132812 137 260.785156 137.234375 260.351562 137.300781 C 259.949219 137.398438 259.550781 137.332031 259.148438 137.101562 C 258.75 136.832031 258.515625 136.5 258.449219 136.101562 C 258.351562 135.699219 258.417969 135.300781 258.648438 134.898438 M 187.148438 159.300781 C 190.816406 156.132812 195.417969 153.382812 200.949219 151.050781 L 192.601562 139.300781 C 191.832031 138.234375 191.316406 137.066406 191.050781 135.800781 C 190.785156 134.566406 190.785156 133.300781 191.050781 132 L 200.851562 83.148438 L 194.101562 87.949219 C 193.300781 88.484375 192.464844 88.667969 191.601562 88.5 C 190.699219 88.367188 189.964844 87.917969 189.398438 87.148438 C 188.867188 86.351562 188.683594 85.515625 188.851562 84.648438 C 189.015625 83.75 189.484375 83.015625 190.25 82.449219 L 238.050781 48.75 C 238.648438 48.351562 239.300781 48.148438 240 48.148438 C 240.699219 48.148438 241.351562 48.351562 241.949219 48.75 L 289.75 82.449219 C 290.515625 83.015625 290.984375 83.75 291.148438 84.648438 C 291.285156 85.515625 291.082031 86.351562 290.550781 87.148438 C 290.214844 87.617188 289.816406 87.964844 289.351562 88.199219 C 288.882812 88.433594 288.382812 88.550781 287.851562 88.550781 C 287.148438 88.550781 286.5 88.351562 285.898438 87.949219 L 282.75 85.75 L 288.949219 116.550781 C 289.214844 117.816406 289.214844 119.082031 288.949219 120.351562 C 288.683594 121.582031 288.167969 122.734375 287.398438 123.800781 L 270.25 147.949219 C 274.949219 149.316406 279.199219 150.949219 283 152.851562 C 286.832031 154.785156 290.117188 156.933594 292.851562 159.300781 C 285.785156 156.066406 277.765625 153.550781 268.800781 151.75 C 259.800781 149.917969 250.199219 149 240 149 C 229.765625 149.035156 220.167969 149.949219 211.199219 151.75 C 202.234375 153.550781 194.214844 156.066406 187.148438 159.300781 M 228.800781 103.949219 L 236.351562 103.949219 C 236.683594 103.949219 236.949219 103.832031 237.148438 103.601562 C 237.351562 103.398438 237.464844 103.132812 237.5 102.800781 L 237.5 95.300781 C 237.464844 94.964844 237.351562 94.699219 237.148438 94.5 C 236.917969 94.265625 236.648438 94.148438 236.351562 94.148438 L 228.800781 94.148438 C 228.5 94.148438 228.234375 94.265625 228 94.5 C 227.800781 94.699219 227.699219 94.964844 227.699219 95.300781 L 227.699219 102.800781 C 227.699219 103.132812 227.800781 103.398438 228 103.601562 C 228.234375 103.832031 228.5 103.949219 228.800781 103.949219 M 243.648438 89.449219 L 251.148438 89.449219 C 251.484375 89.449219 251.765625 89.332031 252 89.101562 C 252.199219 88.898438 252.300781 88.632812 252.300781 88.300781 L 252.300781 80.800781 C 252.300781 80.464844 252.199219 80.199219 252 80 C 251.765625 79.765625 251.484375 79.648438 251.148438 79.648438 L 243.648438 79.648438 C 243.316406 79.648438 243.050781 79.765625 242.851562 80 C 242.617188 80.199219 242.5 80.464844 242.5 80.800781 L 242.5 88.300781 C 242.5 88.632812 242.617188 88.898438 242.851562 89.101562 C 243.050781 89.332031 243.316406 89.449219 243.648438 89.449219 M 243.648438 103.949219 L 251.148438 103.949219 C 251.484375 103.949219 251.765625 103.832031 252 103.601562 C 252.199219 103.398438 252.300781 103.132812 252.300781 102.800781 L 252.300781 95.300781 C 252.300781 94.964844 252.199219 94.699219 252 94.5 C 251.765625 94.265625 251.484375 94.148438 251.148438 94.148438 L 243.648438 94.148438 C 243.316406 94.148438 243.050781 94.265625 242.851562 94.5 C 242.617188 94.699219 242.5 94.964844 242.5 95.300781 L 242.5 102.800781 C 242.5 103.132812 242.617188 103.398438 242.851562 103.601562 C 243.050781 103.832031 243.316406 103.949219 243.648438 103.949219 M 227.699219 88.300781 L 227.699219 80.800781 C 227.699219 80.464844 227.800781 80.199219 228 80 C 228.234375 79.765625 228.5 79.648438 228.800781 79.648438 L 236.351562 79.648438 C 236.683594 79.648438 236.949219 79.765625 237.148438 80 C 237.351562 80.199219 237.464844 80.464844 237.5 80.800781 L 237.5 88.300781 C 237.464844 88.632812 237.351562 88.898438 237.148438 89.101562 C 236.917969 89.332031 236.648438 89.449219 236.351562 89.449219 L 228.800781 89.449219 C 228.5 89.449219 228.234375 89.332031 228 89.101562 C 227.800781 88.898438 227.699219 88.632812 227.699219 88.300781 "/>
  </g>
  <g id="surface4">
    <text style="fill:rgb(19,67,99)" font-family="Helvetica" font-size="50" transform="matrix(1,0,0,1,113.339844,213.3)" ><![CDATA[Hypo Privat]]></text>
    <text style="fill:rgb(157,196,53)" font-family="Helvetica" font-size="35" transform="matrix(1,0,0,1,14.448244,257.95)" ><![CDATA[Darlehen von Privat an Privat]]></text>
  </g>
</svg>